<svg xmlns="http://www.w3.org/2000/svg" fill="none" viewBox="4 4 36 38" role="img" aria-labelledby="title">
  <title id="title">Microsoft Teams</title>
  <path fill="#5f50e2" d="M22 20h12a6 6 0 0 1 6 6v10a6 6 0 0 1-12 0V26a6 6 0 0 0-6-6"/>
  <path fill="#7588ff" d="M8 24a6 6 0 0 1 6-6h8a6 6 0 0 1 6 6v12a6 6 0 0 0 6 6H18A10 10 0 0 1 8 32z"/>
  <circle cx="33" cy="13" r="5" fill="#6868f7"/>
  <circle cx="18" cy="10" r="6" fill="#8282ff"/>
  <rect width="16" height="16" x="4" y="23" fill="#5149de" rx="3.25"/>
  <path fill="#fff" d="M15.48 28.1h-2.45v7.47h-2.06V28.1H8.52v-1.67h6.96z"/>
</svg>
